<svg xmlns="http://www.w3.org/2000/svg" width="1600" height="880" viewBox="0 0 1600 880" role="img" aria-labelledby="title desc"><title id="title">gpt-6-astra A/B Iteration Pass Trend</title><desc id="desc">v50 and e1b1–e1b5 · available test results only</desc><rect width="1600" height="880" fill="#171A1D"/><rect x="55" y="110" width="1490" height="665" rx="4" fill="#1E2225" stroke="#3D4346"/><g font-family="Charter,Georgia,Times New Roman,STSong,Songti SC,Noto Serif CJK SC,serif"><text x="780" y="60" text-anchor="middle" font-size="32" font-weight="500" fill="#ECE8DF">gpt-6-astra A/B Iteration Pass Trend</text><text x="780" y="92" text-anchor="middle" font-size="20" fill="#AAA69E">v50 and e1b1–e1b5 · available test results only</text><line x1="150" y1="710.0" x2="1410" y2="710.0" stroke="#3D4346" stroke-width="1"/><text x="132" y="719.0" text-anchor="end" font-size="24" fill="#D4D0C7">0%</text><line x1="150" y1="600.0" x2="1410" y2="600.0" stroke="#3D4346" stroke-width="1"/><text x="132" y="609.0" text-anchor="end" font-size="24" fill="#D4D0C7">20%</text><line x1="150" y1="490.0" x2="1410" y2="490.0" stroke="#3D4346" stroke-width="1"/><text x="132" y="499.0" text-anchor="end" font-size="24" fill="#D4D0C7">40%</text><line x1="150" y1="380.0" x2="1410" y2="380.0" stroke="#3D4346" stroke-width="1"/><text x="132" y="389.0" text-anchor="end" font-size="24" fill="#D4D0C7">60%</text><line x1="150" y1="270.0" x2="1410" y2="270.0" stroke="#3D4346" stroke-width="1"/><text x="132" y="279.0" text-anchor="end" font-size="24" fill="#D4D0C7">80%</text><line x1="150" y1="160.0" x2="1410" y2="160.0" stroke="#3D4346" stroke-width="1"/><text x="132" y="169.0" text-anchor="end" font-size="24" fill="#D4D0C7">100%</text><line x1="150" y1="160" x2="150" y2="710" stroke="#777E81" stroke-width="1.5"/><line x1="150" y1="710" x2="1410" y2="710" stroke="#777E81" stroke-width="1.5"/><line x1="150.0" y1="710" x2="150.0" y2="716" stroke="#777E81"/><text x="150.0" y="750" text-anchor="middle" font-size="24" fill="#D4D0C7">v50</text><line x1="402.0" y1="710" x2="402.0" y2="716" stroke="#777E81"/><text x="402.0" y="750" text-anchor="middle" font-size="24" fill="#D4D0C7">e1b1</text><line x1="654.0" y1="710" x2="654.0" y2="716" stroke="#777E81"/><text x="654.0" y="750" text-anchor="middle" font-size="24" fill="#D4D0C7">e1b2</text><line x1="906.0" y1="710" x2="906.0" y2="716" stroke="#777E81"/><text x="906.0" y="750" text-anchor="middle" font-size="24" fill="#D4D0C7">e1b3</text><line x1="1158.0" y1="710" x2="1158.0" y2="716" stroke="#777E81"/><text x="1158.0" y="750" text-anchor="middle" font-size="24" fill="#D4D0C7">e1b4</text><line x1="1410.0" y1="710" x2="1410.0" y2="716" stroke="#777E81"/><text x="1410.0" y="750" text-anchor="middle" font-size="24" fill="#D4D0C7">e1b5</text><text x="780.0" y="815" text-anchor="middle" font-size="24" fill="#D4D0C7">Prompt version</text><text x="40" y="435" transform="rotate(-90 40 435)" text-anchor="middle" font-size="24" fill="#D4D0C7">Case pass rate</text><polyline points="150.0,710.0 402.0,710.0 654.0,710.0 906.0,526.7 1158.0,526.7 1410.0,343.3" fill="none" stroke="#9AAFC2" stroke-width="3.5" stroke-linecap="round" stroke-linejoin="round"/><circle cx="150.0" cy="710.0" r="7" fill="#9AAFC2" stroke="#1E2225" stroke-width="2"/><text x="150.0" y="690.0" text-anchor="middle" font-size="24" font-weight="500" fill="#9AAFC2">0/3</text><circle cx="402.0" cy="710.0" r="7" fill="#9AAFC2" stroke="#1E2225" stroke-width="2"/><text x="402.0" y="690.0" text-anchor="middle" font-size="24" font-weight="500" fill="#9AAFC2">0/3</text><circle cx="654.0" cy="710.0" r="7" fill="#9AAFC2" stroke="#1E2225" stroke-width="2"/><text x="654.0" y="690.0" text-anchor="middle" font-size="24" font-weight="500" fill="#9AAFC2">0/3</text><circle cx="906.0" cy="526.7" r="7" fill="#9AAFC2" stroke="#1E2225" stroke-width="2"/><text x="906.0" y="576.7" text-anchor="middle" font-size="24" font-weight="500" fill="#9AAFC2">1/3</text><circle cx="1158.0" cy="526.7" r="7" fill="#9AAFC2" stroke="#1E2225" stroke-width="2"/><text x="1158.0" y="576.7" text-anchor="middle" font-size="24" font-weight="500" fill="#9AAFC2">1/3</text><circle cx="1410.0" cy="343.3" r="7" fill="#9AAFC2" stroke="#1E2225" stroke-width="2"/><text x="1410.0" y="393.3" text-anchor="middle" font-size="24" font-weight="500" fill="#9AAFC2">2/3</text><polyline points="150.0,493.3 1410.0,297.5" fill="none" stroke="#C99C84" stroke-width="3.5" stroke-linecap="round" stroke-linejoin="round"/><rect x="143.0" y="486.3" width="14" height="14" rx="2" fill="#C99C84" stroke="#1E2225" stroke-width="2"/><text x="150.0" y="473.3" text-anchor="middle" font-size="24" font-weight="500" fill="#C99C84">26/66</text><rect x="1403.0" y="290.5" width="14" height="14" rx="2" fill="#C99C84" stroke="#1E2225" stroke-width="2"/><text x="1410.0" y="277.5" text-anchor="middle" font-size="24" font-weight="500" fill="#C99C84">6/8</text><line x1="1060" y1="135" x2="1094" y2="135" stroke="#9AAFC2" stroke-width="3.5"/><circle cx="1077" cy="135" r="7" fill="#9AAFC2"/><text x="1105" y="144" font-size="24" fill="#D4D0C7">A cases</text><line x1="1240" y1="135" x2="1274" y2="135" stroke="#C99C84" stroke-width="3.5"/><rect x="1250" y="128" width="14" height="14" rx="2" fill="#C99C84"/><text x="1285" y="144" font-size="24" fill="#D4D0C7">B cases</text><text x="780" y="858" text-anchor="middle" font-size="18" fill="#AAA69E">B shows available results only: v50 is an existing 66-case composite; e1b5 is the 8-case execution family; coverage differs.</text></g></svg>
